<?xml version="1.0" standalone="no"?>
<!DOCTYPE svg PUBLIC "-//W3C//DTD SVG 20010904//EN"
 "http://www.w3.org/TR/2001/REC-SVG-20010904/DTD/svg10.dtd">
<svg version="1.0" xmlns="http://www.w3.org/2000/svg"
 width="512.000000pt" height="512.000000pt" viewBox="0 0 512.000000 512.000000"
 preserveAspectRatio="xMidYMid meet">
<metadata>
Created by potrace 1.14, written by Peter Selinger 2001-2017
</metadata>
<g transform="translate(0.000000,512.000000) scale(0.100000,-0.100000)"
fill="#000000" stroke="none">
<path d="M2409 5036 c-2 -2 -38 -6 -79 -9 -164 -13 -452 -81 -575 -137 -11 -5
-49 -21 -85 -36 -255 -108 -488 -269 -700 -483 -95 -96 -290 -334 -290 -354 0
-3 -14 -26 -31 -52 -45 -67 -133 -245 -178 -359 -66 -169 -122 -400 -139 -576
-9 -92 -8 -393 1 -475 49 -434 228 -854 511 -1195 149 -179 432 -416 603 -504
41 -21 38 -21 53 14 7 17 16 30 20 30 5 0 51 -21 103 -46 l94 -45 -16 -42
c-13 -35 -16 -98 -19 -364 l-3 -323 881 0 881 0 -3 328 c-3 278 -6 332 -20
364 l-16 37 36 17 c20 9 54 25 74 35 l37 19 17 -32 c9 -18 18 -35 20 -36 5 -7
198 111 291 177 263 189 482 437 650 736 21 39 40 73 41 78 1 4 8 20 16 35 17
33 67 156 95 234 24 66 77 273 85 333 4 23 9 52 11 65 20 102 27 421 12 565
-34 341 -155 682 -345 975 -148 228 -287 378 -546 587 -41 33 -215 143 -286
181 -212 113 -510 211 -725 238 -27 3 -59 8 -70 11 -24 5 -401 14 -406 9z"/>
</g>
</svg>
